<?xml version="1.0" encoding="UTF-8"?>
<svg id="_레이어_1" xmlns="http://www.w3.org/2000/svg" version="1.1" xmlns:xlink="http://www.w3.org/1999/xlink" viewBox="0 0 76 76">
  <!-- Generator: Adobe Illustrator 29.8.3, SVG Export Plug-In . SVG Version: 2.1.1 Build 3)  -->
  <defs>
    <style>
      .st0 {
        fill: #e9e9e9;
      }

      .st1, .st2 {
        fill: none;
      }

      .st3 {
        clip-path: url(#clippath-1);
      }

      .st2 {
        clip-path: url(#clippath);
      }

      .st4 {
        fill: #087645;
      }
    </style>
    <clipPath id="clippath">
      <rect class="st1" x="13.33" y="13.33" width="49.33" height="49.33"/>
    </clipPath>
    <clipPath id="clippath-1">
      <rect class="st2" x="13.33" y="13.33" width="49.33" height="49.33"/>
    </clipPath>
  </defs>
  <path class="st0" d="M68.5,76H7.5c-4.14,0-7.5-3.36-7.5-7.5V7.5C0,3.36,3.36,0,7.5,0h61c4.14,0,7.5,3.36,7.5,7.5v61c0,4.14-3.36,7.5-7.5,7.5ZM7.5,1C3.92,1,1,3.92,1,7.5v61c0,3.58,2.92,6.5,6.5,6.5h61c3.58,0,6.5-2.92,6.5-6.5V7.5c0-3.58-2.92-6.5-6.5-6.5H7.5Z"/>
  <path class="st0" d="M68.5,76H7.5c-4.14,0-7.5-3.36-7.5-7.5V7.5C0,3.36,3.36,0,7.5,0h61c4.14,0,7.5,3.36,7.5,7.5v61c0,4.14-3.36,7.5-7.5,7.5ZM7.5,1C3.92,1,1,3.92,1,7.5v61c0,3.58,2.92,6.5,6.5,6.5h61c3.58,0,6.5-2.92,6.5-6.5V7.5c0-3.58-2.92-6.5-6.5-6.5H7.5Z"/>
  <g class="st3">
    <g>
      <path class="st4" d="M31.83,21.56v-2.06c0-.55.22-1.07.6-1.45s.91-.6,1.45-.6h8.22c.55,0,1.07.22,1.45.6s.6.91.6,1.45v2.06h6.17c.55,0,1.07.22,1.45.6s.6.91.6,1.45v32.89c0,.55-.22,1.07-.6,1.45-.39.39-.91.6-1.45.6h-24.67c-.55,0-1.07-.22-1.45-.6-.39-.39-.6-.91-.6-1.45V23.61c0-.55.22-1.07.6-1.45s.91-.6,1.45-.6h6.18ZM40.06,38v-10.28l-10.28,14.39h6.17v10.28l10.28-14.39h-6.17Z"/>
      <path class="st4" d="M31.83,21.56v-2.06c0-.55.22-1.07.6-1.45s.91-.6,1.45-.6h8.22c.55,0,1.07.22,1.45.6s.6.91.6,1.45v2.06h6.17c.55,0,1.07.22,1.45.6s.6.91.6,1.45v32.89c0,.55-.22,1.07-.6,1.45-.39.39-.91.6-1.45.6h-24.67c-.55,0-1.07-.22-1.45-.6-.39-.39-.6-.91-.6-1.45V23.61c0-.55.22-1.07.6-1.45s.91-.6,1.45-.6h6.18ZM40.06,38v-10.28l-10.28,14.39h6.17v10.28l10.28-14.39h-6.17Z"/>
    </g>
  </g>
</svg>