<?xml version="1.0" encoding="UTF-8"?>
<svg id="_레이어_1" xmlns="http://www.w3.org/2000/svg" version="1.1" viewBox="0 0 76 76">
  <!-- Generator: Adobe Illustrator 29.8.3, SVG Export Plug-In . SVG Version: 2.1.1 Build 3)  -->
  <defs>
    <style>
      .st0 {
        fill: #e9e9e9;
      }

      .st1 {
        fill: #c3153b;
      }
    </style>
  </defs>
  <path class="st0" d="M68.5,76H7.5c-4.14,0-7.5-3.36-7.5-7.5V7.5C0,3.36,3.36,0,7.5,0h61c4.14,0,7.5,3.36,7.5,7.5v61c0,4.14-3.36,7.5-7.5,7.5ZM7.5,1C3.92,1,1,3.92,1,7.5v61c0,3.58,2.92,6.5,6.5,6.5h61c3.58,0,6.5-2.92,6.5-6.5V7.5c0-3.58-2.92-6.5-6.5-6.5H7.5Z"/>
  <path class="st0" d="M68.5,76H7.5c-4.14,0-7.5-3.36-7.5-7.5V7.5C0,3.36,3.36,0,7.5,0h61c4.14,0,7.5,3.36,7.5,7.5v61c0,4.14-3.36,7.5-7.5,7.5ZM7.5,1C3.92,1,1,3.92,1,7.5v61c0,3.58,2.92,6.5,6.5,6.5h61c3.58,0,6.5-2.92,6.5-6.5V7.5c0-3.58-2.92-6.5-6.5-6.5H7.5Z"/>
  <g>
    <path class="st1" d="M57.94,34.68c-.04-.28-.24-.51-.5-.58l-2.78-.8c-.37-1.5-.99-3-1.83-4.47l1.37-2.53c.12-.24.11-.53-.06-.75-1.15-1.55-2.57-2.97-4.12-4.12-.22-.17-.51-.19-.75-.06l-2.53,1.37c-1.47-.85-2.97-1.46-4.47-1.83l-.8-2.78c-.07-.26-.31-.46-.58-.5-1.96-.24-3.86-.24-5.8,0-.28.04-.51.24-.58.5l-.82,2.78c-1.49.37-2.98.99-4.45,1.83l-2.53-1.37c-.24-.14-.53-.11-.75.06-1.55,1.15-2.97,2.57-4.12,4.12-.17.22-.18.51-.06.75l1.37,2.53c-.85,1.47-1.46,2.97-1.83,4.47l-2.78.8c-.26.07-.46.31-.49.58-.26,1.94-.26,3.86,0,5.8.03.28.22.51.49.58l2.78.8c.37,1.5.99,3,1.83,4.47l-1.37,2.53c-.12.24-.11.53.06.75,1.15,1.55,2.57,2.97,4.12,4.12.22.17.51.19.75.06l2.53-1.37c1.47.85,2.97,1.46,4.45,1.83l.82,2.78c.07.26.31.46.57.49.99.14,1.94.19,2.91.19s1.93-.06,2.9-.19c.28-.03.51-.22.58-.49l.8-2.78c1.5-.37,3-.99,4.47-1.83l2.53,1.37c.24.14.53.11.75-.06,1.55-1.15,2.97-2.57,4.12-4.12.17-.22.18-.51.06-.75l-1.37-2.53c.85-1.47,1.46-2.97,1.83-4.47l2.78-.8c.26-.07.46-.31.5-.58.25-1.94.25-3.86,0-5.8ZM38,50.76c-7.27,0-13.18-5.91-13.18-13.18s5.91-13.18,13.18-13.18,13.18,5.91,13.18,13.18-5.91,13.18-13.18,13.18Z"/>
    <path class="st1" d="M57.94,34.68c-.04-.28-.24-.51-.5-.58l-2.78-.8c-.37-1.5-.99-3-1.83-4.47l1.37-2.53c.12-.24.11-.53-.06-.75-1.15-1.55-2.57-2.97-4.12-4.12-.22-.17-.51-.19-.75-.06l-2.53,1.37c-1.47-.85-2.97-1.46-4.47-1.83l-.8-2.78c-.07-.26-.31-.46-.58-.5-1.96-.24-3.86-.24-5.8,0-.28.04-.51.24-.58.5l-.82,2.78c-1.49.37-2.98.99-4.45,1.83l-2.53-1.37c-.24-.14-.53-.11-.75.06-1.55,1.15-2.97,2.57-4.12,4.12-.17.22-.18.51-.06.75l1.37,2.53c-.85,1.47-1.46,2.97-1.83,4.47l-2.78.8c-.26.07-.46.31-.49.58-.26,1.94-.26,3.86,0,5.8.03.28.22.51.49.58l2.78.8c.37,1.5.99,3,1.83,4.47l-1.37,2.53c-.12.24-.11.53.06.75,1.15,1.55,2.57,2.97,4.12,4.12.22.17.51.19.75.06l2.53-1.37c1.47.85,2.97,1.46,4.45,1.83l.82,2.78c.07.26.31.46.57.49.99.14,1.94.19,2.91.19s1.93-.06,2.9-.19c.28-.03.51-.22.58-.49l.8-2.78c1.5-.37,3-.99,4.47-1.83l2.53,1.37c.24.14.53.11.75-.06,1.55-1.15,2.97-2.57,4.12-4.12.17-.22.18-.51.06-.75l-1.37-2.53c.85-1.47,1.46-2.97,1.83-4.47l2.78-.8c.26-.07.46-.31.5-.58.25-1.94.25-3.86,0-5.8ZM38,50.76c-7.27,0-13.18-5.91-13.18-13.18s5.91-13.18,13.18-13.18,13.18,5.91,13.18,13.18-5.91,13.18-13.18,13.18Z"/>
    <path class="st1" d="M47.09,41.19l-7.29-12.52c-.39-.64-1.05-1.03-1.8-1.03s-1.42.39-1.8,1.03l-7.29,12.52c-.39.65-.39,1.43-.01,2.08.37.65,1.05,1.05,1.8,1.05h14.6c.75,0,1.43-.4,1.8-1.05s.37-1.43,0-2.08ZM38,40.84c-.39,0-.69-.32-.69-.69s.31-.69.69-.69.69.31.69.69-.31.69-.69.69ZM38.69,37.37c0,.37-.31.69-.69.69s-.69-.32-.69-.69v-4.16c0-.39.31-.69.69-.69s.69.31.69.69v4.16Z"/>
    <path class="st1" d="M47.09,41.19l-7.29-12.52c-.39-.64-1.05-1.03-1.8-1.03s-1.42.39-1.8,1.03l-7.29,12.52c-.39.65-.39,1.43-.01,2.08.37.65,1.05,1.05,1.8,1.05h14.6c.75,0,1.43-.4,1.8-1.05s.37-1.43,0-2.08ZM38,40.84c-.39,0-.69-.32-.69-.69s.31-.69.69-.69.69.31.69.69-.31.69-.69.69ZM38.69,37.37c0,.37-.31.69-.69.69s-.69-.32-.69-.69v-4.16c0-.39.31-.69.69-.69s.69.31.69.69v4.16Z"/>
  </g>
</svg>