<?xml version="1.0" encoding="UTF-8"?>
<svg id="_레이어_1" xmlns="http://www.w3.org/2000/svg" version="1.1" viewBox="0 0 76 76">
  <!-- Generator: Adobe Illustrator 29.8.3, SVG Export Plug-In . SVG Version: 2.1.1 Build 3)  -->
  <defs>
    <style>
      .st0 {
        fill: #e9e9e9;
      }

      .st1 {
        fill: #f4ce23;
      }

      .st2 {
        fill: #040000;
      }
    </style>
  </defs>
  <path class="st0" d="M68.5,76H7.5c-4.14,0-7.5-3.36-7.5-7.5V7.5C0,3.36,3.36,0,7.5,0h61c4.14,0,7.5,3.36,7.5,7.5v61c0,4.14-3.36,7.5-7.5,7.5ZM7.5,1C3.92,1,1,3.92,1,7.5v61c0,3.58,2.92,6.5,6.5,6.5h61c3.58,0,6.5-2.92,6.5-6.5V7.5c0-3.58-2.92-6.5-6.5-6.5H7.5Z"/>
  <path class="st0" d="M68.5,76H7.5c-4.14,0-7.5-3.36-7.5-7.5V7.5C0,3.36,3.36,0,7.5,0h61c4.14,0,7.5,3.36,7.5,7.5v61c0,4.14-3.36,7.5-7.5,7.5ZM7.5,1C3.92,1,1,3.92,1,7.5v61c0,3.58,2.92,6.5,6.5,6.5h61c3.58,0,6.5-2.92,6.5-6.5V7.5c0-3.58-2.92-6.5-6.5-6.5H7.5Z"/>
  <g>
    <path class="st1" d="M21.75,55.77c-1.31,0-2.53-.7-3.18-1.84-.65-1.13-.65-2.54,0-3.67l16.28-28.2c.65-1.13,1.87-1.84,3.18-1.84s2.53.7,3.18,1.84l16.28,28.2c.65,1.13.65,2.54,0,3.67-.65,1.13-1.87,1.84-3.18,1.84H21.75Z"/>
    <path class="st1" d="M21.75,55.77c-1.31,0-2.53-.7-3.18-1.84-.65-1.13-.65-2.54,0-3.67l16.28-28.2c.65-1.13,1.87-1.84,3.18-1.84s2.53.7,3.18,1.84l16.28,28.2c.65,1.13.65,2.54,0,3.67-.65,1.13-1.87,1.84-3.18,1.84H21.75Z"/>
    <path class="st2" d="M56.63,50.65l-16.28-28.2c-.48-.82-1.36-1.33-2.31-1.33s-1.84.51-2.31,1.33l-16.28,28.2c-.48.82-.48,1.85,0,2.67s1.36,1.33,2.31,1.33h32.57c.95,0,1.84-.51,2.31-1.33.48-.82.48-1.85,0-2.67h0ZM55.9,52.91c-.33.57-.93.92-1.59.92H21.75c-.66,0-1.26-.35-1.59-.92s-.33-1.27,0-1.84l16.28-28.2c.33-.57.93-.92,1.59-.92s1.26.35,1.59.92l16.28,28.2c.33.57.33,1.27,0,1.84Z"/>
    <path class="st2" d="M56.63,50.65l-16.28-28.2c-.48-.82-1.36-1.33-2.31-1.33s-1.84.51-2.31,1.33l-16.28,28.2c-.48.82-.48,1.85,0,2.67s1.36,1.33,2.31,1.33h32.57c.95,0,1.84-.51,2.31-1.33.48-.82.48-1.85,0-2.67h0ZM55.9,52.91c-.33.57-.93.92-1.59.92H21.75c-.66,0-1.26-.35-1.59-.92s-.33-1.27,0-1.84l16.28-28.2c.33-.57.93-.92,1.59-.92s1.26.35,1.59.92l16.28,28.2c.33.57.33,1.27,0,1.84Z"/>
    <g>
      <path class="st2" d="M30.75,42.25c-.17,0-.35-.08-.49-.2-.36-.31-.41-.85-.11-1.21,2.13-2.54,3.88-2.86,5.15-3.1.34-.06.63-.12.89-.21,1.49-.53,2.3-1.6,2.49-3.3.15-1.37-.19-2.61-.19-2.62-.13-.46.14-.93.59-1.06.46-.13.93.13,1.06.59.02.06.43,1.53.25,3.23-.25,2.38-1.51,4.03-3.63,4.79-.38.13-.75.2-1.14.28-1.13.21-2.41.45-4.15,2.51-.19.22-.46.33-.73.31h0Z"/>
      <path class="st2" d="M30.75,42.25c-.17,0-.35-.08-.49-.2-.36-.31-.41-.85-.11-1.21,2.13-2.54,3.88-2.86,5.15-3.1.34-.06.63-.12.89-.21,1.49-.53,2.3-1.6,2.49-3.3.15-1.37-.19-2.61-.19-2.62-.13-.46.14-.93.59-1.06.46-.13.93.13,1.06.59.02.06.43,1.53.25,3.23-.25,2.38-1.51,4.03-3.63,4.79-.38.13-.75.2-1.14.28-1.13.21-2.41.45-4.15,2.51-.19.22-.46.33-.73.31h0Z"/>
      <path class="st2" d="M45.18,46.54c-.39-.03-.72-.32-.79-.72-.15-.87-.42-1.44-.84-1.74-.77-.55-2.2-.3-3.71-.04l-.24.04c-.47.08-.92-.23-1-.7s.23-.91.7-1l.24-.04c1.79-.31,3.64-.63,5,.33.82.58,1.32,1.51,1.55,2.86.08.47-.24.91-.71.99-.07,0-.14,0-.21,0v.02Z"/>
      <path class="st2" d="M45.18,46.54c-.39-.03-.72-.32-.79-.72-.15-.87-.42-1.44-.84-1.74-.77-.55-2.2-.3-3.71-.04l-.24.04c-.47.08-.92-.23-1-.7s.23-.91.7-1l.24-.04c1.79-.31,3.64-.63,5,.33.82.58,1.32,1.51,1.55,2.86.08.47-.24.91-.71.99-.07,0-.14,0-.21,0v.02Z"/>
      <path class="st2" d="M38.88,44.71c-.63-.05-1.22-.28-1.73-.69-.84-.67-1.44-1.81-1.79-3.37-.23-1.05-.28-1.94-.28-1.98l2.82-1.58.07,1.44c.05,1.06.59,3.47,2.48,4.23,1.84.73.4.07.55.04l.13,1.62-1.43.24c-.28.05-.56.06-.83.04h.01Z"/>
      <path class="st2" d="M38.88,44.71c-.63-.05-1.22-.28-1.73-.69-.84-.67-1.44-1.81-1.79-3.37-.23-1.05-.28-1.94-.28-1.98l2.82-1.58.07,1.44c.05,1.06.59,3.47,2.48,4.23,1.84.73.4.07.55.04l.13,1.62-1.43.24c-.28.05-.56.06-.83.04h.01Z"/>
      <path class="st2" d="M43.48,50.75c-1.05-.1-.94-1.27-.94-2.11-.02-.21-.04-.41-.07-.6-.22-1.37-.85-2.42-1.87-3.15-1.07-.77-2.21-.9-2.23-.9-.47-.05-.82-.47-.78-.94.04-.47.46-.81.92-.78h.02c.06,0,1.6.16,3.07,1.21,1.19.85,2.53,2.44,2.67,5.3,0,.14,0,.28,0,.42-.07.5.09,1-.24,1.38-.14.12-.34.18-.57.16h0Z"/>
      <path class="st2" d="M43.48,50.75c-1.05-.1-.94-1.27-.94-2.11-.02-.21-.04-.41-.07-.6-.22-1.37-.85-2.42-1.87-3.15-1.07-.77-2.21-.9-2.23-.9-.47-.05-.82-.47-.78-.94.04-.47.46-.81.92-.78h.02c.06,0,1.6.16,3.07,1.21,1.19.85,2.53,2.44,2.67,5.3,0,.14,0,.28,0,.42-.07.5.09,1-.24,1.38-.14.12-.34.18-.57.16h0Z"/>
      <circle class="st2" cx="34.81" cy="34.64" r="2"/>
      <circle class="st2" cx="34.81" cy="34.64" r="2"/>
    </g>
    <path class="st2" d="M48.05,50.99c0,.06-.83.12-2.22.17-.23,0-.48,0-.74.02-2.34-.08-4.71.06-7.1.02-.19,0-.38,0-.57,0-.25,0-.51,0-.76,0-2.82,0-5.6.08-8.33-.11-.31-.03-.47-.05-.47-.08s.16-.06.47-.08c2.66-.13,5.31-.13,7.99-.21h1.76c2.25.05,4.55-.11,6.79.09.28,0,.54.02.79.03,1.49.05,2.39.11,2.39.17Z"/>
    <path class="st2" d="M48.05,50.99c0,.06-.83.12-2.22.17-.23,0-.48,0-.74.02-2.34-.08-4.71.06-7.1.02-.19,0-.38,0-.57,0-.25,0-.51,0-.76,0-2.82,0-5.6.08-8.33-.11-.31-.03-.47-.05-.47-.08s.16-.06.47-.08c2.66-.13,5.31-.13,7.99-.21h1.76c2.25.05,4.55-.11,6.79.09.28,0,.54.02.79.03,1.49.05,2.39.11,2.39.17Z"/>
  </g>
</svg>