<?xml version="1.0" encoding="UTF-8"?>
<svg id="_레이어_1" xmlns="http://www.w3.org/2000/svg" version="1.1" viewBox="0 0 21.78 23.11">
  <!-- Generator: Adobe Illustrator 29.8.3, SVG Export Plug-In . SVG Version: 2.1.1 Build 3)  -->
  <defs>
    <style>
      .st0 {
        fill: #fff;
      }

      .st1 {
        fill: #28334a;
      }

      .st2 {
        fill: #1a2333;
      }

      .st3 {
        fill: #666767;
      }

      .st4 {
        fill: #999;
      }

      .st5 {
        fill: #32405c;
      }

      .st6 {
        fill: #263147;
      }
    </style>
  </defs>
  <path class="st4" d="M19.48,23.11v-14.5C19.48,3.88,15.6,0,10.87,0S2.25,3.88,2.25,8.61v14.5h17.23Z"/>
  <path class="st4" d="M19.48,23.11v-14.5C19.48,3.88,15.6,0,10.87,0S2.25,3.88,2.25,8.61v14.5h17.23Z"/>
  <path class="st3" d="M15.52,7.92v15.19h3.96v-14.5C19.48,3.88,15.6,0,10.87,0c-.19,0-.37,0-.55.02,3.05,1.33,5.2,4.38,5.2,7.9Z"/>
  <path class="st3" d="M15.52,7.92v15.19h3.96v-14.5C19.48,3.88,15.6,0,10.87,0c-.19,0-.37,0-.55.02,3.05,1.33,5.2,4.38,5.2,7.9Z"/>
  <path class="st6" d="M2.19,16.8h17.4c.19,0,.34.15.34.34v3.85c0,.19-.15.34-.34.34H2.19c-.19,0-.34-.15-.34-.34v-3.85c0-.19.15-.34.34-.34Z"/>
  <path class="st6" d="M2.19,16.8h17.4c.19,0,.34.15.34.34v3.85c0,.19-.15.34-.34.34H2.19c-.19,0-.34-.15-.34-.34v-3.85c0-.19.15-.34.34-.34Z"/>
  <path class="st5" d="M15.52,16.8H2.19c-.19,0-.34.15-.34.34v3.85c0,.19.15.34.34.34h13.33v-4.54h0Z"/>
  <path class="st5" d="M15.52,16.8H2.19c-.19,0-.34.15-.34.34v3.85c0,.19.15.34.34.34h13.33v-4.54h0Z"/>
  <path class="st2" d="M21.78,22.77l-.3-2.02c-.03-.19-.21-.34-.39-.34H.7c-.19,0-.37.15-.4.34L0,22.77c-.03.19.1.34.29.34h21.19c.19,0,.32-.15.29-.34h0Z"/>
  <path class="st2" d="M21.78,22.77l-.3-2.02c-.03-.19-.21-.34-.39-.34H.7c-.19,0-.37.15-.4.34L0,22.77c-.03.19.1.34.29.34h21.19c.19,0,.32-.15.29-.34h0Z"/>
  <path class="st1" d="M15.52,20.41H.7c-.19,0-.37.15-.4.34L0,22.77c-.03.19.1.34.29.34h15.22v-2.7h.01Z"/>
  <path class="st1" d="M15.52,20.41H.7c-.19,0-.37.15-.4.34L0,22.77c-.03.19.1.34.29.34h15.22v-2.7h.01Z"/>
  <path class="st0" d="M4.71,15.45c-.33,0-.6-.27-.6-.6v-7.21c-.02-.3-.13-2.48,1.33-4.21,1-1.19,2.48-1.86,4.4-2.02.33-.02.62.22.65.55s-.22.62-.55.65c-1.59.13-2.79.66-3.57,1.59-1.21,1.43-1.05,3.33-1.04,3.35v7.3c0,.33-.27.6-.6.6h-.02Z"/>
  <path class="st0" d="M4.71,15.45c-.33,0-.6-.27-.6-.6v-7.21c-.02-.3-.13-2.48,1.33-4.21,1-1.19,2.48-1.86,4.4-2.02.33-.02.62.22.65.55s-.22.62-.55.65c-1.59.13-2.79.66-3.57,1.59-1.21,1.43-1.05,3.33-1.04,3.35v7.3c0,.33-.27.6-.6.6h-.02Z"/>
</svg>