<?xml version="1.0" encoding="UTF-8"?>
<svg id="_레이어_1" xmlns="http://www.w3.org/2000/svg" version="1.1" viewBox="0 0 76 76">
  <!-- Generator: Adobe Illustrator 29.8.3, SVG Export Plug-In . SVG Version: 2.1.1 Build 3)  -->
  <defs>
    <style>
      .st0 {
        fill: #e9e9e9;
      }

      .st1 {
        fill: #1b5aa9;
      }
    </style>
  </defs>
  <path class="st0" d="M68.5,76H7.5c-4.14,0-7.5-3.36-7.5-7.5V7.5C0,3.36,3.36,0,7.5,0h61c4.14,0,7.5,3.36,7.5,7.5v61c0,4.14-3.36,7.5-7.5,7.5ZM7.5,1C3.92,1,1,3.92,1,7.5v61c0,3.58,2.92,6.5,6.5,6.5h61c3.58,0,6.5-2.92,6.5-6.5V7.5c0-3.58-2.92-6.5-6.5-6.5H7.5Z"/>
  <path class="st0" d="M68.5,76H7.5c-4.14,0-7.5-3.36-7.5-7.5V7.5C0,3.36,3.36,0,7.5,0h61c4.14,0,7.5,3.36,7.5,7.5v61c0,4.14-3.36,7.5-7.5,7.5ZM7.5,1C3.92,1,1,3.92,1,7.5v61c0,3.58,2.92,6.5,6.5,6.5h61c3.58,0,6.5-2.92,6.5-6.5V7.5c0-3.58-2.92-6.5-6.5-6.5H7.5Z"/>
  <path class="st1" d="M31.68,58.54c-2.91,0-5.4-1.03-7.45-3.08-2.05-2.05-3.08-4.54-3.08-7.45s1.03-5.4,3.08-7.45,4.54-3.08,7.45-3.08v4.21c-1.76,0-3.25.61-4.48,1.84s-1.84,2.72-1.84,4.48.61,3.25,1.84,4.48,2.72,1.84,4.48,1.84,3.25-.61,4.48-1.84,1.84-2.72,1.84-4.48h4.21c0,2.91-1.03,5.4-3.08,7.45-2.05,2.05-4.54,3.08-7.45,3.08ZM50.64,56.43v-10.53h-12.64c-1.54,0-2.74-.66-3.58-1.97s-.95-2.69-.32-4.13l3.9-8.64h-4.79l-1.26,3.27-4.06-1.16,1.47-3.79c.32-.81.83-1.43,1.55-1.87s1.5-.66,2.34-.66h10.95c1.58,0,2.78.64,3.61,1.92s.92,2.64.29,4.08l-3.48,7.69h6c1.16,0,2.15.41,2.98,1.24.83.83,1.24,1.82,1.24,2.98v11.59h-4.21v-.02ZM48.53,25.89c-1.16,0-2.15-.41-2.98-1.24s-1.24-1.82-1.24-2.98.41-2.15,1.24-2.98,1.82-1.24,2.98-1.24,2.15.41,2.98,1.24,1.24,1.82,1.24,2.98-.41,2.15-1.24,2.98-1.82,1.24-2.98,1.24Z"/>
  <path class="st1" d="M31.68,58.54c-2.91,0-5.4-1.03-7.45-3.08-2.05-2.05-3.08-4.54-3.08-7.45s1.03-5.4,3.08-7.45,4.54-3.08,7.45-3.08v4.21c-1.76,0-3.25.61-4.48,1.84s-1.84,2.72-1.84,4.48.61,3.25,1.84,4.48,2.72,1.84,4.48,1.84,3.25-.61,4.48-1.84,1.84-2.72,1.84-4.48h4.21c0,2.91-1.03,5.4-3.08,7.45-2.05,2.05-4.54,3.08-7.45,3.08ZM50.64,56.43v-10.53h-12.64c-1.54,0-2.74-.66-3.58-1.97s-.95-2.69-.32-4.13l3.9-8.64h-4.79l-1.26,3.27-4.06-1.16,1.47-3.79c.32-.81.83-1.43,1.55-1.87s1.5-.66,2.34-.66h10.95c1.58,0,2.78.64,3.61,1.92s.92,2.64.29,4.08l-3.48,7.69h6c1.16,0,2.15.41,2.98,1.24.83.83,1.24,1.82,1.24,2.98v11.59h-4.21v-.02ZM48.53,25.89c-1.16,0-2.15-.41-2.98-1.24s-1.24-1.82-1.24-2.98.41-2.15,1.24-2.98,1.82-1.24,2.98-1.24,2.15.41,2.98,1.24,1.24,1.82,1.24,2.98-.41,2.15-1.24,2.98-1.82,1.24-2.98,1.24Z"/>
</svg>