<?xml version="1.0" encoding="UTF-8"?>
<svg id="_레이어_1" xmlns="http://www.w3.org/2000/svg" version="1.1" viewBox="0 0 76 76">
  <!-- Generator: Adobe Illustrator 29.8.3, SVG Export Plug-In . SVG Version: 2.1.1 Build 3)  -->
  <defs>
    <style>
      .st0 {
        fill: #e9e9e9;
      }

      .st1 {
        fill: #1b5aa9;
      }
    </style>
  </defs>
  <path class="st1" d="M25.06,25.68c-1.13,0-2.1-.4-2.9-1.21s-1.21-1.77-1.21-2.9.4-2.1,1.21-2.9,1.77-1.21,2.9-1.21,2.1.4,2.9,1.21,1.21,1.77,1.21,2.9-.4,2.1-1.21,2.9-1.77,1.21-2.9,1.21ZM21.98,58.54v-14.38h-4.11v-12.32c0-1.13.4-2.1,1.21-2.9.8-.8,1.77-1.21,2.9-1.21h6.16c1.13,0,2.1.4,2.9,1.21s1.21,1.77,1.21,2.9v4.01c-2.16,1.23-3.89,2.94-5.21,5.13s-1.98,4.62-1.98,7.29c0,1.95.36,3.79,1.08,5.52s1.73,3.24,3.03,4.54v.21s-7.19,0-7.19,0ZM39.44,58.54c-2.84,0-5.26-1-7.27-3s-3-4.42-3-7.27c0-2.29.68-4.32,2.03-6.08s3.07-2.99,5.16-3.67v4.47c-.92.55-1.67,1.28-2.23,2.21s-.85,1.95-.85,3.08c0,1.71.6,3.17,1.8,4.36s2.65,1.8,4.36,1.8,3.17-.6,4.36-1.8c1.2-1.2,1.8-2.65,1.8-4.36h4.11c0,2.84-1,5.26-3,7.27s-4.42,3-7.27,3h0ZM54.69,53.82l-5.08-7.6h-11.19v-16.43h4.11v12.32h9.35l6.26,9.45-3.44,2.26h-.01Z"/>
  <path class="st1" d="M25.06,25.68c-1.13,0-2.1-.4-2.9-1.21s-1.21-1.77-1.21-2.9.4-2.1,1.21-2.9,1.77-1.21,2.9-1.21,2.1.4,2.9,1.21,1.21,1.77,1.21,2.9-.4,2.1-1.21,2.9-1.77,1.21-2.9,1.21ZM21.98,58.54v-14.38h-4.11v-12.32c0-1.13.4-2.1,1.21-2.9.8-.8,1.77-1.21,2.9-1.21h6.16c1.13,0,2.1.4,2.9,1.21s1.21,1.77,1.21,2.9v4.01c-2.16,1.23-3.89,2.94-5.21,5.13s-1.98,4.62-1.98,7.29c0,1.95.36,3.79,1.08,5.52s1.73,3.24,3.03,4.54v.21s-7.19,0-7.19,0ZM39.44,58.54c-2.84,0-5.26-1-7.27-3s-3-4.42-3-7.27c0-2.29.68-4.32,2.03-6.08s3.07-2.99,5.16-3.67v4.47c-.92.55-1.67,1.28-2.23,2.21s-.85,1.95-.85,3.08c0,1.71.6,3.17,1.8,4.36s2.65,1.8,4.36,1.8,3.17-.6,4.36-1.8c1.2-1.2,1.8-2.65,1.8-4.36h4.11c0,2.84-1,5.26-3,7.27s-4.42,3-7.27,3h0ZM54.69,53.82l-5.08-7.6h-11.19v-16.43h4.11v12.32h9.35l6.26,9.45-3.44,2.26h-.01Z"/>
  <path class="st0" d="M68.5,76H7.5c-4.14,0-7.5-3.36-7.5-7.5V7.5C0,3.36,3.36,0,7.5,0h61c4.14,0,7.5,3.36,7.5,7.5v61c0,4.14-3.36,7.5-7.5,7.5ZM7.5,1C3.92,1,1,3.92,1,7.5v61c0,3.58,2.92,6.5,6.5,6.5h61c3.58,0,6.5-2.92,6.5-6.5V7.5c0-3.58-2.92-6.5-6.5-6.5H7.5Z"/>
  <path class="st0" d="M68.5,76H7.5c-4.14,0-7.5-3.36-7.5-7.5V7.5C0,3.36,3.36,0,7.5,0h61c4.14,0,7.5,3.36,7.5,7.5v61c0,4.14-3.36,7.5-7.5,7.5ZM7.5,1C3.92,1,1,3.92,1,7.5v61c0,3.58,2.92,6.5,6.5,6.5h61c3.58,0,6.5-2.92,6.5-6.5V7.5c0-3.58-2.92-6.5-6.5-6.5H7.5Z"/>
</svg>