<?xml version="1.0" encoding="UTF-8"?>
<svg id="_레이어_1" xmlns="http://www.w3.org/2000/svg" version="1.1" viewBox="0 0 29.98 30.03">
  <!-- Generator: Adobe Illustrator 29.8.3, SVG Export Plug-In . SVG Version: 2.1.1 Build 3)  -->
  <defs>
    <style>
      .st0 {
        fill: #cfdeec;
      }
    </style>
  </defs>
  <path class="st0" d="M9.41,14.92c-3.5,0-6.35,2.85-6.35,6.35s2.85,6.35,6.35,6.35,6.35-2.85,6.35-6.35-2.85-6.35-6.35-6.35ZM11.39,20.81c-.04-.19-.12-.36-.21-.53l2.35-2.35c.65.8,1.07,1.8,1.16,2.88,0,0-3.3,0-3.3,0ZM9.41,22.28c-.56,0-1.01-.45-1.01-1.01,0-.27.1-.52.29-.71.19-.19.44-.3.71-.3.56,0,1.01.45,1.01,1.01s-.45,1.01-1.01,1.01h.01ZM10.47,19.53c-.17-.1-.35-.18-.55-.23v-3.32c1.09.11,2.09.54,2.89,1.21,0,0-2.34,2.34-2.34,2.34ZM8.89,19.3c-.19.05-.38.13-.55.23l-2.34-2.34c.8-.67,1.79-1.11,2.89-1.21v3.32ZM8.42,23.05c.15.08.3.15.47.19v3.32c-1.06-.1-2.03-.52-2.82-1.16l2.35-2.35ZM9.92,23.24c.17-.04.32-.11.47-.19l2.35,2.35c-.79.64-1.76,1.05-2.82,1.16v-3.32ZM5.27,17.93l2.35,2.35c-.09.17-.17.34-.21.53h-3.3c.09-1.09.51-2.08,1.16-2.88ZM4.12,21.85h3.33c.05.17.12.33.21.48l-2.34,2.34c-.66-.78-1.09-1.76-1.21-2.83h.01ZM13.48,24.67l-2.34-2.34c.09-.15.16-.31.21-.49h3.33c-.12,1.07-.55,2.04-1.21,2.83h.01ZM2.48,0C1.11,0,0,1.11,0,2.47s1.11,2.47,2.47,2.47h2.5v8.77c-2.59,1.53-4.34,4.34-4.34,7.55,0,4.83,3.93,8.77,8.77,8.77s8.77-3.93,8.77-8.77c0-1.25-.26-2.43-.74-3.5h5.69v2.74c-1.76.75-3,2.5-3,4.54,0,2.72,2.21,4.93,4.93,4.93s4.93-2.21,4.93-4.93c0-2.03-1.24-3.78-3-4.54v-2.74h.65c.28,0,.5-.22.52-.49.1-1.95-.38-3.46-1.44-4.49-1.2-1.16-2.78-1.36-3.53-1.38v-5.4h3.12c.94,0,1.71-.77,1.71-1.71s-.77-1.71-1.71-1.71H9.92V.52c0-.29-.23-.52-.52-.52H2.48ZM22.16,11.42h-1.99v-5.41h1.99v5.41ZM9.92,6.01h9.21v5.42l-9.21.04s0-5.46,0-5.46ZM26.31,3.63c.37,0,.68.3.68.68s-.3.68-.68.68H9.92v-1.35h16.39ZM2.48,3.91c-.79,0-1.44-.65-1.44-1.44s.65-1.44,1.44-1.44h2.5v2.88h-2.5ZM6.01,1.04h2.88v11.49c-1.01.06-1.98.28-2.88.66,0,0,0-12.15,0-12.15ZM9.41,29c-4.26,0-7.73-3.47-7.73-7.73s3.47-7.73,7.73-7.73,7.73,3.47,7.73,7.73-3.47,7.73-7.73,7.73ZM9.92,12.53v-.02l12.9-.06s1.93-.13,3.18,1.09c.74.73,1.12,1.8,1.13,3.19h-10.24c-1.45-2.39-4.01-4.03-6.97-4.2ZM24.16,17.77h1.79v2.43c-.29-.05-.59-.09-.9-.09s-.61.03-.9.09v-2.43h.01ZM25.06,28.94c-2.15,0-3.9-1.75-3.9-3.9s1.75-3.9,3.9-3.9,3.9,1.75,3.9,3.9-1.75,3.9-3.9,3.9ZM25.06,22.35c-1.48,0-2.69,1.21-2.69,2.69s1.21,2.69,2.69,2.69,2.69-1.21,2.69-2.69-1.21-2.69-2.69-2.69ZM25.06,26.7c-.91,0-1.65-.74-1.65-1.66s.74-1.66,1.65-1.66,1.65.74,1.65,1.66-.74,1.66-1.65,1.66Z"/>
  <path class="st0" d="M9.41,14.92c-3.5,0-6.35,2.85-6.35,6.35s2.85,6.35,6.35,6.35,6.35-2.85,6.35-6.35-2.85-6.35-6.35-6.35ZM11.39,20.81c-.04-.19-.12-.36-.21-.53l2.35-2.35c.65.8,1.07,1.8,1.16,2.88,0,0-3.3,0-3.3,0ZM9.41,22.28c-.56,0-1.01-.45-1.01-1.01,0-.27.1-.52.29-.71.19-.19.44-.3.71-.3.56,0,1.01.45,1.01,1.01s-.45,1.01-1.01,1.01h.01ZM10.47,19.53c-.17-.1-.35-.18-.55-.23v-3.32c1.09.11,2.09.54,2.89,1.21,0,0-2.34,2.34-2.34,2.34ZM8.89,19.3c-.19.05-.38.13-.55.23l-2.34-2.34c.8-.67,1.79-1.11,2.89-1.21v3.32ZM8.42,23.05c.15.08.3.15.47.19v3.32c-1.06-.1-2.03-.52-2.82-1.16l2.35-2.35ZM9.92,23.24c.17-.04.32-.11.47-.19l2.35,2.35c-.79.64-1.76,1.05-2.82,1.16v-3.32ZM5.27,17.93l2.35,2.35c-.09.17-.17.34-.21.53h-3.3c.09-1.09.51-2.08,1.16-2.88ZM4.12,21.85h3.33c.05.17.12.33.21.48l-2.34,2.34c-.66-.78-1.09-1.76-1.21-2.83h.01ZM13.48,24.67l-2.34-2.34c.09-.15.16-.31.21-.49h3.33c-.12,1.07-.55,2.04-1.21,2.83h.01ZM2.48,0C1.11,0,0,1.11,0,2.47s1.11,2.47,2.47,2.47h2.5v8.77c-2.59,1.53-4.34,4.34-4.34,7.55,0,4.83,3.93,8.77,8.77,8.77s8.77-3.93,8.77-8.77c0-1.25-.26-2.43-.74-3.5h5.69v2.74c-1.76.75-3,2.5-3,4.54,0,2.72,2.21,4.93,4.93,4.93s4.93-2.21,4.93-4.93c0-2.03-1.24-3.78-3-4.54v-2.74h.65c.28,0,.5-.22.52-.49.1-1.95-.38-3.46-1.44-4.49-1.2-1.16-2.78-1.36-3.53-1.38v-5.4h3.12c.94,0,1.71-.77,1.71-1.71s-.77-1.71-1.71-1.71H9.92V.52c0-.29-.23-.52-.52-.52H2.48ZM22.16,11.42h-1.99v-5.41h1.99v5.41ZM9.92,6.01h9.21v5.42l-9.21.04s0-5.46,0-5.46ZM26.31,3.63c.37,0,.68.3.68.68s-.3.68-.68.68H9.92v-1.35h16.39ZM2.48,3.91c-.79,0-1.44-.65-1.44-1.44s.65-1.44,1.44-1.44h2.5v2.88h-2.5ZM6.01,1.04h2.88v11.49c-1.01.06-1.98.28-2.88.66,0,0,0-12.15,0-12.15ZM9.41,29c-4.26,0-7.73-3.47-7.73-7.73s3.47-7.73,7.73-7.73,7.73,3.47,7.73,7.73-3.47,7.73-7.73,7.73ZM9.92,12.53v-.02l12.9-.06s1.93-.13,3.18,1.09c.74.73,1.12,1.8,1.13,3.19h-10.24c-1.45-2.39-4.01-4.03-6.97-4.2ZM24.16,17.77h1.79v2.43c-.29-.05-.59-.09-.9-.09s-.61.03-.9.09v-2.43h.01ZM25.06,28.94c-2.15,0-3.9-1.75-3.9-3.9s1.75-3.9,3.9-3.9,3.9,1.75,3.9,3.9-1.75,3.9-3.9,3.9ZM25.06,22.35c-1.48,0-2.69,1.21-2.69,2.69s1.21,2.69,2.69,2.69,2.69-1.21,2.69-2.69-1.21-2.69-2.69-2.69ZM25.06,26.7c-.91,0-1.65-.74-1.65-1.66s.74-1.66,1.65-1.66,1.65.74,1.65,1.66-.74,1.66-1.65,1.66Z"/>
</svg>