<?xml version="1.0" encoding="UTF-8"?>
<svg id="_레이어_1" xmlns="http://www.w3.org/2000/svg" version="1.1" xmlns:xlink="http://www.w3.org/1999/xlink" viewBox="0 0 80.74 80.74">
  <!-- Generator: Adobe Illustrator 29.8.3, SVG Export Plug-In . SVG Version: 2.1.1 Build 3)  -->
  <defs>
    <style>
      .st0 {
        fill: #e9e9e9;
      }

      .st1, .st2 {
        fill: none;
      }

      .st3 {
        clip-path: url(#clippath-1);
      }

      .st2 {
        clip-path: url(#clippath);
      }

      .st4 {
        fill: #087645;
      }
    </style>
    <clipPath id="clippath">
      <rect class="st1" x="14.14" y="14.15" width="52.45" height="52.45"/>
    </clipPath>
    <clipPath id="clippath-1">
      <rect class="st2" x="14.14" y="14.15" width="52.45" height="52.45"/>
    </clipPath>
  </defs>
  <path class="st0" d="M73.24,80.74H7.5c-4.14,0-7.5-3.36-7.5-7.5V7.5C0,3.36,3.36,0,7.5,0h65.74c4.14,0,7.5,3.36,7.5,7.5v65.74c0,4.14-3.36,7.5-7.5,7.5ZM7.5,1C3.92,1,1,3.92,1,7.5v65.74c0,3.58,2.92,6.5,6.5,6.5h65.74c3.58,0,6.5-2.92,6.5-6.5V7.5c0-3.58-2.92-6.5-6.5-6.5H7.5Z"/>
  <path class="st0" d="M73.24,80.74H7.5c-4.14,0-7.5-3.36-7.5-7.5V7.5C0,3.36,3.36,0,7.5,0h65.74c4.14,0,7.5,3.36,7.5,7.5v65.74c0,4.14-3.36,7.5-7.5,7.5ZM7.5,1C3.92,1,1,3.92,1,7.5v65.74c0,3.58,2.92,6.5,6.5,6.5h65.74c3.58,0,6.5-2.92,6.5-6.5V7.5c0-3.58-2.92-6.5-6.5-6.5H7.5Z"/>
  <g class="st3">
    <g>
      <path class="st4" d="M33.81,22.89v-2.19c0-.58.23-1.14.64-1.55s.97-.64,1.55-.64h8.74c.58,0,1.14.23,1.55.64s.64.97.64,1.55v2.19h6.56c.58,0,1.14.23,1.55.64s.64.97.64,1.55v34.97c0,.58-.23,1.14-.64,1.55s-.97.64-1.55.64h-26.23c-.58,0-1.14-.23-1.55-.64s-.64-.97-.64-1.55V25.07c0-.58.23-1.14.64-1.55s.97-.64,1.55-.64h6.56,0ZM42.56,40.37v-10.93l-10.93,15.3h6.56v10.93l10.93-15.3h-6.56Z"/>
      <path class="st4" d="M33.81,22.89v-2.19c0-.58.23-1.14.64-1.55s.97-.64,1.55-.64h8.74c.58,0,1.14.23,1.55.64s.64.97.64,1.55v2.19h6.56c.58,0,1.14.23,1.55.64s.64.97.64,1.55v34.97c0,.58-.23,1.14-.64,1.55s-.97.64-1.55.64h-26.23c-.58,0-1.14-.23-1.55-.64s-.64-.97-.64-1.55V25.07c0-.58.23-1.14.64-1.55s.97-.64,1.55-.64h6.56,0ZM42.56,40.37v-10.93l-10.93,15.3h6.56v10.93l10.93-15.3h-6.56Z"/>
    </g>
  </g>
</svg>