<?xml version="1.0" encoding="UTF-8"?>
<svg id="_레이어_1" xmlns="http://www.w3.org/2000/svg" version="1.1" viewBox="0 0 80.74 80.74">
  <!-- Generator: Adobe Illustrator 29.8.3, SVG Export Plug-In . SVG Version: 2.1.1 Build 3)  -->
  <defs>
    <style>
      .st0, .st1 {
        fill: #1d376a;
      }

      .st2 {
        fill: #e9e9e9;
      }

      .st3 {
        fill: #fff;
      }

      .st3, .st1, .st4 {
        fill-rule: evenodd;
      }

      .st4 {
        fill: #2e8abd;
      }
    </style>
  </defs>
  <g>
    <g id="_휠체어_x3C_그룹_x3E_">
      <g>
        <path class="st1" d="M28.56,55.28h0c.09.12.16.27.22.42l3.72,6.99c.1.48-.14.96-.56,1.18-.43.22-.95.14-1.29-.2-2.77-3.85-4.14-5.82-4.09-5.89h-5.58c-1.23,0-2.24-1.01-2.24-2.24v-7.83c0-1.24,1.01-2.25,2.24-2.25h0c1.23,0,2.24,1.01,2.24,2.25v3.78l5.34.18c.35.12.58.45.56.82-.01.36-.27.67-.63.77-3.07.31-4.83.47-5.28.46v.94h4.1c.51,0,.97.24,1.25.63h0Z"/>
        <path class="st1" d="M28.56,55.28h0c.09.12.16.27.22.42l3.72,6.99c.1.48-.14.96-.56,1.18-.43.22-.95.14-1.29-.2-2.77-3.85-4.14-5.82-4.09-5.89h-5.58c-1.23,0-2.24-1.01-2.24-2.24v-7.83c0-1.24,1.01-2.25,2.24-2.25h0c1.23,0,2.24,1.01,2.24,2.25v3.78l5.34.18c.35.12.58.45.56.82-.01.36-.27.67-.63.77-3.07.31-4.83.47-5.28.46v.94h4.1c.51,0,.97.24,1.25.63h0Z"/>
        <path class="st1" d="M27.61,61.06c-1.17,3.02-4.1,5.16-7.53,5.16-4.46,0-8.07-3.62-8.07-8.08,0-3.72,2.51-6.85,5.93-7.8v1.65c-2.54.88-4.37,3.31-4.37,6.15,0,3.6,2.91,6.51,6.51,6.51,3.18,0,5.83-2.29,6.39-5.31.1.16.2.32.3.48.26.42.54.83.84,1.24h0Z"/>
        <path class="st1" d="M27.61,61.06c-1.17,3.02-4.1,5.16-7.53,5.16-4.46,0-8.07-3.62-8.07-8.08,0-3.72,2.51-6.85,5.93-7.8v1.65c-2.54.88-4.37,3.31-4.37,6.15,0,3.6,2.91,6.51,6.51,6.51,3.18,0,5.83-2.29,6.39-5.31.1.16.2.32.3.48.26.42.54.83.84,1.24h0Z"/>
        <path class="st1" d="M21.37,39.83c1.37,0,2.47,1.11,2.47,2.48s-1.11,2.47-2.47,2.47-2.47-1.1-2.47-2.47,1.11-2.48,2.47-2.48h0Z"/>
        <path class="st1" d="M21.37,39.83c1.37,0,2.47,1.11,2.47,2.48s-1.11,2.47-2.47,2.47-2.47-1.1-2.47-2.47,1.11-2.48,2.47-2.48h0Z"/>
      </g>
    </g>
    <path class="st4" d="M50.33,23.32c0-2.54,1.03-4.84,2.69-6.51,1.66-1.66,3.97-2.69,6.51-2.69s4.84,1.03,6.51,2.69c1.66,1.66,2.69,3.97,2.69,6.51,0,4.22-3.34,9.47-6.07,13.76-1.08,1.69-2.06,3.24-2.67,4.45-.13.26-.44.37-.7.24-.11-.05-.19-.14-.24-.24-.61-1.21-1.59-2.75-2.67-4.45-2.72-4.29-6.07-9.54-6.07-13.76h.02Z"/>
    <path class="st4" d="M50.33,23.32c0-2.54,1.03-4.84,2.69-6.51,1.66-1.66,3.97-2.69,6.51-2.69s4.84,1.03,6.51,2.69c1.66,1.66,2.69,3.97,2.69,6.51,0,4.22-3.34,9.47-6.07,13.76-1.08,1.69-2.06,3.24-2.67,4.45-.13.26-.44.37-.7.24-.11-.05-.19-.14-.24-.24-.61-1.21-1.59-2.75-2.67-4.45-2.72-4.29-6.07-9.54-6.07-13.76h.02Z"/>
    <path class="st3" d="M59.53,27.8c2.41,0,4.38-1.97,4.38-4.38s-1.97-4.38-4.38-4.38-4.38,1.97-4.38,4.38,1.97,4.38,4.38,4.38h0Z"/>
    <path class="st3" d="M59.53,27.8c2.41,0,4.38-1.97,4.38-4.38s-1.97-4.38-4.38-4.38-4.38,1.97-4.38,4.38,1.97,4.38,4.38,4.38h0Z"/>
    <path class="st0" d="M54.2,49.82h-8.2c-2.53,0-4.58-2.06-4.58-4.58s2.06-4.58,4.58-4.58h8.02c-.74-1.21-1.49-2.41-2.23-3.62h-5.79c-4.52,0-8.2,3.68-8.2,8.2,0,1.7.52,3.27,1.4,4.58h0c.08.12.17.25.26.37.03.04.06.07.09.11.07.08.13.17.2.25.03.04.07.08.1.12.07.08.14.16.22.23.03.03.06.07.09.1.21.21.43.42.67.61.04.03.07.06.11.09.08.07.17.13.25.19.04.03.09.06.13.09.09.06.17.12.26.18.04.03.08.05.12.08.26.16.52.3.8.43.04.02.09.04.13.06.1.04.19.09.29.13.05.02.1.04.15.06.1.04.2.07.3.11.05.02.09.03.14.05.29.09.59.17.9.23.05,0,.1.02.14.03.11.02.22.04.32.05.05,0,.11,0,.16.02.11,0,.22.02.33.03.05,0,.1,0,.15,0,.16,0,.32.02.48.02h8.2c2.53,0,4.58,2.06,4.58,4.58s-2.06,4.58-4.58,4.58h-17.98v3.62h17.98c4.52,0,8.2-3.68,8.2-8.2s-3.68-8.2-8.2-8.2v-.03Z"/>
    <path class="st0" d="M54.2,49.82h-8.2c-2.53,0-4.58-2.06-4.58-4.58s2.06-4.58,4.58-4.58h8.02c-.74-1.21-1.49-2.41-2.23-3.62h-5.79c-4.52,0-8.2,3.68-8.2,8.2,0,1.7.52,3.27,1.4,4.58h0c.08.12.17.25.26.37.03.04.06.07.09.11.07.08.13.17.2.25.03.04.07.08.1.12.07.08.14.16.22.23.03.03.06.07.09.1.21.21.43.42.67.61.04.03.07.06.11.09.08.07.17.13.25.19.04.03.09.06.13.09.09.06.17.12.26.18.04.03.08.05.12.08.26.16.52.3.8.43.04.02.09.04.13.06.1.04.19.09.29.13.05.02.1.04.15.06.1.04.2.07.3.11.05.02.09.03.14.05.29.09.59.17.9.23.05,0,.1.02.14.03.11.02.22.04.32.05.05,0,.11,0,.16.02.11,0,.22.02.33.03.05,0,.1,0,.15,0,.16,0,.32.02.48.02h8.2c2.53,0,4.58,2.06,4.58,4.58s-2.06,4.58-4.58,4.58h-17.98v3.62h17.98c4.52,0,8.2-3.68,8.2-8.2s-3.68-8.2-8.2-8.2v-.03Z"/>
  </g>
  <path class="st2" d="M73.24,80.74H7.5c-4.14,0-7.5-3.36-7.5-7.5V7.5C0,3.36,3.36,0,7.5,0h65.74c4.14,0,7.5,3.36,7.5,7.5v65.74c0,4.14-3.36,7.5-7.5,7.5ZM7.5,1C3.92,1,1,3.92,1,7.5v65.74c0,3.58,2.92,6.5,6.5,6.5h65.74c3.58,0,6.5-2.92,6.5-6.5V7.5c0-3.58-2.92-6.5-6.5-6.5H7.5Z"/>
  <path class="st2" d="M73.24,80.74H7.5c-4.14,0-7.5-3.36-7.5-7.5V7.5C0,3.36,3.36,0,7.5,0h65.74c4.14,0,7.5,3.36,7.5,7.5v65.74c0,4.14-3.36,7.5-7.5,7.5ZM7.5,1C3.92,1,1,3.92,1,7.5v65.74c0,3.58,2.92,6.5,6.5,6.5h65.74c3.58,0,6.5-2.92,6.5-6.5V7.5c0-3.58-2.92-6.5-6.5-6.5H7.5Z"/>
</svg>