<?xml version="1.0" encoding="UTF-8"?>
<svg id="_레이어_1" xmlns="http://www.w3.org/2000/svg" version="1.1" viewBox="0 0 128.56 103.05">
  <!-- Generator: Adobe Illustrator 29.8.3, SVG Export Plug-In . SVG Version: 2.1.1 Build 3)  -->
  <defs>
    <style>
      .st0 {
        fill: #1a5293;
      }

      .st1 {
        fill: #979797;
      }

      .st2 {
        fill: #e9e8e8;
      }
    </style>
  </defs>
  <g id="_x3C_그룹_x3E_발판_조절">
    <path class="st1" d="M83.96,90.15l-1.9-.78,1.72-.69c14.11-5.65,21.13-21.37,15.66-35.04l-.68-1.7,2.01.83c.37.15.79.09,1.1-.15.32-.24.48-.64.42-1.03-.05-.39-.31-.73-.68-.88l-4.44-1.82c-.56-.23-1.19.03-1.44.57l-1.96,4.38c-.16.36-.12.78.11,1.11.23.32.62.5,1.02.46.4-.04.74-.29.9-.65l.89-1.99.68,1.7c5.02,12.53-1.45,26.95-14.42,32.14l-1.72.69.84-1.87c.16-.36.12-.79-.11-1.11s-.62-.5-1.02-.46c-.4.04-.74.29-.9.66l-1.96,4.38c-.12.28-.13.59-.02.87s.33.5.61.62l4.44,1.82c.57.23,1.22-.04,1.45-.61.23-.57-.04-1.22-.61-1.45h.01Z"/>
    <path class="st1" d="M83.96,90.15l-1.9-.78,1.72-.69c14.11-5.65,21.13-21.37,15.66-35.04l-.68-1.7,2.01.83c.37.15.79.09,1.1-.15.32-.24.48-.64.42-1.03-.05-.39-.31-.73-.68-.88l-4.44-1.82c-.56-.23-1.19.03-1.44.57l-1.96,4.38c-.16.36-.12.78.11,1.11.23.32.62.5,1.02.46.4-.04.74-.29.9-.65l.89-1.99.68,1.7c5.02,12.53-1.45,26.95-14.42,32.14l-1.72.69.84-1.87c.16-.36.12-.79-.11-1.11s-.62-.5-1.02-.46c-.4.04-.74.29-.9.66l-1.96,4.38c-.12.28-.13.59-.02.87s.33.5.61.62l4.44,1.82c.57.23,1.22-.04,1.45-.61.23-.57-.04-1.22-.61-1.45h.01Z"/>
    <path class="st2" d="M121.06,103.05H7.5c-4.14,0-7.5-3.36-7.5-7.5V7.5C0,3.36,3.36,0,7.5,0h113.56c4.14,0,7.5,3.36,7.5,7.5v88.05c0,4.14-3.36,7.5-7.5,7.5ZM7.5,1C3.92,1,1,3.92,1,7.5v88.05c0,3.58,2.92,6.5,6.5,6.5h113.56c3.58,0,6.5-2.92,6.5-6.5V7.5c0-3.58-2.92-6.5-6.5-6.5H7.5Z"/>
    <path class="st2" d="M121.06,103.05H7.5c-4.14,0-7.5-3.36-7.5-7.5V7.5C0,3.36,3.36,0,7.5,0h113.56c4.14,0,7.5,3.36,7.5,7.5v88.05c0,4.14-3.36,7.5-7.5,7.5ZM7.5,1C3.92,1,1,3.92,1,7.5v88.05c0,3.58,2.92,6.5,6.5,6.5h113.56c3.58,0,6.5-2.92,6.5-6.5V7.5c0-3.58-2.92-6.5-6.5-6.5H7.5Z"/>
    <g>
      <path class="st0" d="M84.39,60.22l-32.19,2.63c-.48,2.83-3.04,4.82-5.9,4.6s-5.08-2.59-5.12-5.46c-.04-2.87,2.12-5.29,4.98-5.59l-4.85-22.94c-.27-1.19-1.44-1.94-2.64-1.68l-.92.19h0l-6.51,1.34h-.03l-.15.03,7.34,35.49c.22,1.03,1.13,1.76,2.19,1.74h44.02c2.92.09,5.38-2.16,5.55-5.08.03-1.38-.5-2.71-1.47-3.68-1.13-1.12-2.69-1.69-4.28-1.57v-.02Z"/>
      <path class="st0" d="M84.39,60.22l-32.19,2.63c-.48,2.83-3.04,4.82-5.9,4.6s-5.08-2.59-5.12-5.46c-.04-2.87,2.12-5.29,4.98-5.59l-4.85-22.94c-.27-1.19-1.44-1.94-2.64-1.68l-.92.19h0l-6.51,1.34h-.03l-.15.03,7.34,35.49c.22,1.03,1.13,1.76,2.19,1.74h44.02c2.92.09,5.38-2.16,5.55-5.08.03-1.38-.5-2.71-1.47-3.68-1.13-1.12-2.69-1.69-4.28-1.57v-.02Z"/>
      <path class="st0" d="M83.46,77.91v-5.13h-42.28v5.13c0,.61.5,1.11,1.11,1.11h40.06c.61,0,1.11-.5,1.11-1.11Z"/>
      <path class="st0" d="M83.46,77.91v-5.13h-42.28v5.13c0,.61.5,1.11,1.11,1.11h40.06c.61,0,1.11-.5,1.11-1.11Z"/>
      <path class="st0" d="M46.74,65.08c1.84,0,3.34-1.46,3.34-3.26s-1.49-3.26-3.34-3.26-3.34,1.46-3.34,3.26,1.49,3.26,3.34,3.26Z"/>
      <path class="st0" d="M46.74,65.08c1.84,0,3.34-1.46,3.34-3.26s-1.49-3.26-3.34-3.26-3.34,1.46-3.34,3.26,1.49,3.26,3.34,3.26Z"/>
      <path class="st0" d="M31.22,27.82l4.36-.89.63,3.08-4.36.89-.63-3.08Z"/>
      <path class="st0" d="M31.22,27.82l4.36-.89.63,3.08-4.36.89-.63-3.08Z"/>
      <path class="st0" d="M28.18,15.69c-.31.47-.42,1.05-.3,1.6l1.81,8.55c6.34-1.29,5.09-1.04,6.54-1.34.58-.11,1.09-.46,1.42-.95.31-.47.43-1.05.31-1.61l-1.36-6.42c-.27-1.19-1.44-1.94-2.64-1.68l-4.36.89c-.58.11-1.09.46-1.42.95h0Z"/>
      <path class="st0" d="M28.18,15.69c-.31.47-.42,1.05-.3,1.6l1.81,8.55c6.34-1.29,5.09-1.04,6.54-1.34.58-.11,1.09-.46,1.42-.95.31-.47.43-1.05.31-1.61l-1.36-6.42c-.27-1.19-1.44-1.94-2.64-1.68l-4.36.89c-.58.11-1.09.46-1.42.95h0Z"/>
      <path class="st0" d="M105.73,82.1l-7.05,1.15c-.38,0-.74-.22-.9-.57l-9.54-15.9c-.24-.5-.03-1.1.47-1.33.5-.24,1.1-.03,1.33.47l9.27,15.33,6.42-1.15c.55,0,1,.45,1,1s-.45,1-1,1Z"/>
      <path class="st0" d="M105.73,82.1l-7.05,1.15c-.38,0-.74-.22-.9-.57l-9.54-15.9c-.24-.5-.03-1.1.47-1.33.5-.24,1.1-.03,1.33.47l9.27,15.33,6.42-1.15c.55,0,1,.45,1,1s-.45,1-1,1Z"/>
    </g>
  </g>
</svg>