<?xml version="1.0" encoding="UTF-8"?>
<svg xmlns="http://www.w3.org/2000/svg" version="1.1" viewBox="0 0 128.56 103.05">
  <!-- Generator: Adobe Illustrator 29.8.3, SVG Export Plug-In . SVG Version: 2.1.1 Build 3)  -->
  <defs>
    <style>
      .st0 {
        fill: #c0ddf9;
      }

      .st1 {
        fill: none;
      }

      .st2 {
        fill: #1a5293;
      }

      .st3 {
        fill: #979797;
      }

      .st4 {
        fill: #e9e8e8;
      }
    </style>
  </defs>
  <g id="_레이어_1">
    <g id="_테두리">
      <path class="st4" d="M121.06,103.05H7.5c-4.14,0-7.5-3.36-7.5-7.5V7.5C0,3.36,3.36,0,7.5,0h113.56c4.14,0,7.5,3.36,7.5,7.5v88.05c0,4.14-3.36,7.5-7.5,7.5ZM7.5,1C3.92,1,1,3.92,1,7.5v88.05c0,3.58,2.92,6.5,6.5,6.5h113.56c3.58,0,6.5-2.92,6.5-6.5V7.5c0-3.58-2.92-6.5-6.5-6.5H7.5Z"/>
    </g>
  </g>
  <g id="_레이어_2" data-name="레이어_2">
    <g>
      <g id="_레이어_11">
        <path class="st3" d="M110.85,82.57h-.69l.43-.43c3.51-3.61,3.51-9.33,0-12.73l-.43-.43h.71c.13-.02.26-.11.32-.22s.06-.26,0-.37-.19-.17-.32-.17l-1.59.04c-.19,0-.37.17-.37.37v1.59c0,.13.06.26.19.32.11.06.26.06.37,0s.17-.19.19-.32v-.71l.43.43c3.23,3.12,3.2,8.34,0,11.68l-.43.43v-.69c0-.13-.06-.26-.19-.32s-.26-.06-.37,0-.19.19-.19.32v1.59s.04.19.11.26.17.11.28.11l1.59-.04c.19,0,.37-.17.34-.39s-.17-.37-.39-.37h0v.04h.01Z"/>
      </g>
      <g id="_레이어_5">
        <polygon class="st0" points="41.12 82.42 106.79 82.42 106.79 70.05 41.12 82.42"/>
      </g>
      <g id="_레이어_6">
        <line class="st1" x1="41.16" y1="82.42" x2="106.79" y2="70.05"/>
        <line class="st1" x1="41.12" y1="82.42" x2="106.85" y2="82.43"/>
      </g>
      <g>
        <path class="st2" d="M79,56.13l-31.14,8.56c.05,2.87-2.09,5.3-4.94,5.61-2.85.31-5.47-1.6-6.04-4.42-.57-2.81,1.1-5.59,3.86-6.42l-9.02-21.64c-.49-1.12-1.77-1.64-2.91-1.16l-.87.36h0l-6.15,2.52h-.03s-.14.06-.14.06l13.8,33.51c.41.97,1.44,1.52,2.47,1.3l43.26-8.17c2.89-.45,4.89-3.12,4.51-6.02-.23-1.36-.99-2.57-2.13-3.34-1.32-.89-2.96-1.16-4.5-.75v-.02s-.02,0-.02,0Z"/>
        <path class="st2" d="M79,56.13l-31.14,8.56c.05,2.87-2.09,5.3-4.94,5.61-2.85.31-5.47-1.6-6.04-4.42-.57-2.81,1.1-5.59,3.86-6.42l-9.02-21.64c-.49-1.12-1.77-1.64-2.91-1.16l-.87.36h0l-6.15,2.52h-.03s-.14.06-.14.06l13.8,33.51c.41.97,1.44,1.52,2.47,1.3l43.26-8.17c2.89-.45,4.89-3.12,4.51-6.02-.23-1.36-.99-2.57-2.13-3.34-1.32-.89-2.96-1.16-4.5-.75v-.02s-.02,0-.02,0Z"/>
        <path class="st2" d="M81.37,73.69l-.95-5.04-41.55,7.84.95,5.04c.11.6.7,1,1.3.88l39.36-7.43c.6-.11,1-.7.88-1.3Z"/>
        <path class="st2" d="M81.37,73.69l-.95-5.04-41.55,7.84.95,5.04c.11.6.7,1,1.3.88l39.36-7.43c.6-.11,1-.7.88-1.3Z"/>
        <path class="st2" d="M42.9,67.89c1.81-.34,3.01-2.05,2.68-3.82s-2.07-2.93-3.89-2.58-3.01,2.05-2.68,3.82,2.07,2.93,3.89,2.58Z"/>
        <path class="st2" d="M42.9,67.89c1.81-.34,3.01-2.05,2.68-3.82s-2.07-2.93-3.89-2.58-3.01,2.05-2.68,3.82,2.07,2.93,3.89,2.58Z"/>
        <path class="st2" d="M20.74,34.16l4.12-1.68,1.19,2.91-4.12,1.68s-1.19-2.91-1.19-2.91Z"/>
        <path class="st2" d="M20.74,34.16l4.12-1.68,1.19,2.91-4.12,1.68s-1.19-2.91-1.19-2.91Z"/>
        <path class="st2" d="M15.5,22.8c-.22.52-.22,1.11,0,1.63l3.36,8.07c5.99-2.44,4.81-1.97,6.18-2.53.55-.22.99-.65,1.22-1.2.22-.52.23-1.11,0-1.64l-2.53-6.06c-.49-1.12-1.77-1.64-2.91-1.16l-4.12,1.68c-.55.22-.99.65-1.22,1.2h0Z"/>
        <path class="st2" d="M15.5,22.8c-.22.52-.22,1.11,0,1.63l3.36,8.07c5.99-2.44,4.81-1.97,6.18-2.53.55-.22.99-.65,1.22-1.2.22-.52.23-1.11,0-1.64l-2.53-6.06c-.49-1.12-1.77-1.64-2.91-1.16l-4.12,1.68c-.55.22-.99.65-1.22,1.2h0Z"/>
        <path class="st2" d="M104.03,73.67l-6.71,2.44c-.37.07-.77-.08-.99-.39l-12.32-13.85c-.33-.45-.23-1.08.22-1.39.45-.33,1.08-.23,1.39.22l11.95,13.34,6.1-2.32c.54-.1,1.07.26,1.17.8s-.26,1.07-.8,1.17Z"/>
        <path class="st2" d="M104.03,73.67l-6.71,2.44c-.37.07-.77-.08-.99-.39l-12.32-13.85c-.33-.45-.23-1.08.22-1.39.45-.33,1.08-.23,1.39.22l11.95,13.34,6.1-2.32c.54-.1,1.07.26,1.17.8s-.26,1.07-.8,1.17Z"/>
      </g>
    </g>
  </g>
</svg>