<?xml version="1.0" encoding="UTF-8"?>
<svg id="_레이어_1" data-name="레이어_1" xmlns="http://www.w3.org/2000/svg" version="1.1" viewBox="0 0 128.56 103.05">
  <!-- Generator: Adobe Illustrator 29.8.3, SVG Export Plug-In . SVG Version: 2.1.1 Build 3)  -->
  <defs>
    <style>
      .st0 {
        fill: #c0ddf9;
      }

      .st1 {
        fill: none;
      }

      .st2 {
        fill: #1a5293;
      }

      .st3 {
        fill: #979797;
      }

      .st4 {
        fill: #e9e8e8;
      }
    </style>
  </defs>
  <g id="_테두리" data-name="테두리">
    <path class="st4" d="M121.06,103.05H7.5c-4.14,0-7.5-3.36-7.5-7.5V7.5C0,3.36,3.36,0,7.5,0h113.56c4.14,0,7.5,3.36,7.5,7.5v88.05c0,4.14-3.36,7.5-7.5,7.5ZM7.5,1C3.92,1,1,3.92,1,7.5v88.05c0,3.58,2.92,6.5,6.5,6.5h113.56c3.58,0,6.5-2.92,6.5-6.5V7.5c0-3.58-2.92-6.5-6.5-6.5H7.5Z"/>
  </g>
  <g>
    <g id="_레이어_4">
      <g>
        <g>
          <rect class="st2" x="34.99" y="30.25" width="29.78" height="28.44" rx="2" ry="2" transform="translate(-6.96 9.34) rotate(-10)"/>
          <rect class="st2" x="37.23" y="13.49" width="17.03" height="15.13" rx="2" ry="2" transform="translate(-2.96 8.26) rotate(-10)"/>
          <rect class="st2" x="37.41" y="59.4" width="32" height="10.21" rx="2" ry="2" transform="translate(-10.39 10.25) rotate(-10)"/>
        </g>
        <g>
          <g>
            <rect class="st2" x="69.87" y="46.71" width="2.67" height="33.62" rx=".5" ry=".5" transform="translate(-9.95 13.33) rotate(-10)"/>
            <path class="st2" d="M75.65,76.4h0c-.18.03-.35-.16-.4-.44l-4.5-25.52c-.05-.28.05-.52.23-.55h0c.62-.11,2.11,5.49,2.28,6.44l2.33,13.22c.17.96.67,6.74.06,6.84Z"/>
          </g>
          <rect class="st2" x="60.01" y="82.64" width="16.45" height="1.78" rx=".3" ry=".3" transform="translate(-13.47 13.12) rotate(-10)"/>
        </g>
        <g>
          <g>
            <rect class="st2" x="35.01" y="52.85" width="2.67" height="33.62" rx=".5" ry=".5" transform="translate(-11.54 7.37) rotate(-10)"/>
            <path class="st2" d="M36.57,83.29h0c.18-.03.28-.27.23-.55l-4.5-25.52c-.05-.28-.22-.47-.4-.44h0c-.62.11-.11,5.88.06,6.83l2.33,13.22c.17.96,1.67,6.56,2.28,6.45Z"/>
          </g>
          <rect class="st2" x="37.75" y="86.57" width="16.45" height="1.78" rx=".3" ry=".3" transform="translate(-14.49 9.31) rotate(-10)"/>
        </g>
      </g>
    </g>
    <g id="_레이어_11" data-name="_레이어_1">
      <path class="st3" d="M104.13,89.86h-.69l.43-.43c3.51-3.61,3.51-9.33,0-12.73l-.43-.43h.71c.13-.02.26-.11.32-.22s.06-.26,0-.37c-.06-.11-.19-.17-.32-.17l-1.59.04c-.19,0-.37.17-.37.37v1.59c0,.13.06.26.19.32.11.06.26.06.37,0,.11-.06.17-.19.19-.32v-.71l.43.43c3.23,3.12,3.2,8.34,0,11.68l-.43.43v-.69c0-.13-.06-.26-.19-.32s-.26-.06-.37,0c-.11.06-.19.19-.19.32v1.59s.04.19.11.26.17.11.28.11l1.59-.04c.19,0,.37-.17.34-.39s-.17-.37-.39-.37h0v.04Z"/>
    </g>
    <g id="_레이어_5">
      <polygon class="st0" points="38.33 89.71 100.07 89.71 100.07 78.06 38.33 89.71"/>
    </g>
    <g id="_레이어_6">
      <line class="st1" x1="38.37" y1="89.71" x2="100.07" y2="78.06"/>
      <line class="st1" x1="38.33" y1="89.71" x2="100.13" y2="89.72"/>
    </g>
  </g>
</svg>