<?xml version="1.0" encoding="UTF-8"?>
<svg id="_레이어_1" xmlns="http://www.w3.org/2000/svg" version="1.1" viewBox="0 0 128.56 103.05">
  <!-- Generator: Adobe Illustrator 29.8.3, SVG Export Plug-In . SVG Version: 2.1.1 Build 3)  -->
  <defs>
    <style>
      .st0 {
        fill: #1a5293;
      }

      .st1 {
        fill: #979797;
      }

      .st2 {
        fill: #e9e8e8;
      }
    </style>
  </defs>
  <g id="_x3C_그룹_x3E_기울기_조절">
    <path class="st1" d="M90.45,45.96l-1.43,1.47v-1.85c0-15.2-11.98-27.56-26.71-27.56h-1.83l1.51-1.56c.28-.29.38-.7.27-1.08s-.41-.68-.8-.78c-.39-.1-.79.02-1.07.3l-3.34,3.45c-.42.43-.42,1.12,0,1.55l3.34,3.45c.28.29.68.4,1.07.31.39-.1.69-.39.8-.77.11-.38,0-.79-.27-1.08l-1.51-1.56h1.83c13.5,0,24.48,11.36,24.48,25.33v1.85l-1.43-1.47c-.28-.29-.68-.41-1.07-.31s-.69.39-.8.78c-.11.38,0,.8.27,1.08l3.34,3.45c.21.22.5.34.8.34s.59-.12.8-.34l3.34-3.45c.42-.44.41-1.14-.03-1.57s-1.14-.42-1.57.02h.01Z"/>
    <path class="st1" d="M90.45,45.96l-1.43,1.47v-1.85c0-15.2-11.98-27.56-26.71-27.56h-1.83l1.51-1.56c.28-.29.38-.7.27-1.08s-.41-.68-.8-.78c-.39-.1-.79.02-1.07.3l-3.34,3.45c-.42.43-.42,1.12,0,1.55l3.34,3.45c.28.29.68.4,1.07.31.39-.1.69-.39.8-.77.11-.38,0-.79-.27-1.08l-1.51-1.56h1.83c13.5,0,24.48,11.36,24.48,25.33v1.85l-1.43-1.47c-.28-.29-.68-.41-1.07-.31s-.69.39-.8.78c-.11.38,0,.8.27,1.08l3.34,3.45c.21.22.5.34.8.34s.59-.12.8-.34l3.34-3.45c.42-.44.41-1.14-.03-1.57s-1.14-.42-1.57.02h.01Z"/>
    <path class="st2" d="M121.06,103.05H7.5c-4.14,0-7.5-3.36-7.5-7.5V7.5C0,3.36,3.36,0,7.5,0h113.56c4.14,0,7.5,3.36,7.5,7.5v88.05c0,4.14-3.36,7.5-7.5,7.5ZM7.5,1C3.92,1,1,3.92,1,7.5v88.05c0,3.58,2.92,6.5,6.5,6.5h113.56c3.58,0,6.5-2.92,6.5-6.5V7.5c0-3.58-2.92-6.5-6.5-6.5H7.5Z"/>
    <path class="st2" d="M121.06,103.05H7.5c-4.14,0-7.5-3.36-7.5-7.5V7.5C0,3.36,3.36,0,7.5,0h113.56c4.14,0,7.5,3.36,7.5,7.5v88.05c0,4.14-3.36,7.5-7.5,7.5ZM7.5,1C3.92,1,1,3.92,1,7.5v88.05c0,3.58,2.92,6.5,6.5,6.5h113.56c3.58,0,6.5-2.92,6.5-6.5V7.5c0-3.58-2.92-6.5-6.5-6.5H7.5Z"/>
    <g>
      <path class="st0" d="M84.39,63.22l-32.19,2.63c-.48,2.83-3.04,4.82-5.9,4.6s-5.08-2.59-5.12-5.46c-.04-2.87,2.12-5.29,4.98-5.59l-4.85-22.94c-.27-1.19-1.44-1.94-2.64-1.68l-.92.19h0l-6.51,1.34h-.03l-.15.03,7.34,35.49c.22,1.03,1.13,1.76,2.19,1.74h44.02c2.92.09,5.38-2.16,5.55-5.08.03-1.38-.5-2.71-1.47-3.68-1.13-1.12-2.69-1.69-4.28-1.57v-.02Z"/>
      <path class="st0" d="M84.39,63.22l-32.19,2.63c-.48,2.83-3.04,4.82-5.9,4.6s-5.08-2.59-5.12-5.46c-.04-2.87,2.12-5.29,4.98-5.59l-4.85-22.94c-.27-1.19-1.44-1.94-2.64-1.68l-.92.19h0l-6.51,1.34h-.03l-.15.03,7.34,35.49c.22,1.03,1.13,1.76,2.19,1.74h44.02c2.92.09,5.38-2.16,5.55-5.08.03-1.38-.5-2.71-1.47-3.68-1.13-1.12-2.69-1.69-4.28-1.57v-.02Z"/>
      <path class="st0" d="M83.46,80.91v-5.13h-42.28v5.13c0,.61.5,1.11,1.11,1.11h40.06c.61,0,1.11-.5,1.11-1.11Z"/>
      <path class="st0" d="M83.46,80.91v-5.13h-42.28v5.13c0,.61.5,1.11,1.11,1.11h40.06c.61,0,1.11-.5,1.11-1.11Z"/>
      <path class="st0" d="M46.74,68.08c1.84,0,3.34-1.46,3.34-3.26s-1.49-3.26-3.34-3.26-3.34,1.46-3.34,3.26,1.49,3.26,3.34,3.26Z"/>
      <path class="st0" d="M46.74,68.08c1.84,0,3.34-1.46,3.34-3.26s-1.49-3.26-3.34-3.26-3.34,1.46-3.34,3.26,1.49,3.26,3.34,3.26Z"/>
      <path class="st0" d="M31.22,30.82l4.36-.89.63,3.08-4.36.89s-.63-3.08-.63-3.08Z"/>
      <path class="st0" d="M31.22,30.82l4.36-.89.63,3.08-4.36.89s-.63-3.08-.63-3.08Z"/>
      <path class="st0" d="M28.18,18.69c-.31.47-.42,1.05-.3,1.6l1.81,8.55c6.34-1.29,5.09-1.04,6.54-1.34.58-.11,1.09-.46,1.42-.95.31-.47.43-1.05.31-1.61l-1.36-6.42c-.27-1.19-1.44-1.94-2.64-1.68l-4.36.89c-.58.11-1.09.46-1.42.95h0Z"/>
      <path class="st0" d="M28.18,18.69c-.31.47-.42,1.05-.3,1.6l1.81,8.55c6.34-1.29,5.09-1.04,6.54-1.34.58-.11,1.09-.46,1.42-.95.31-.47.43-1.05.31-1.61l-1.36-6.42c-.27-1.19-1.44-1.94-2.64-1.68l-4.36.89c-.58.11-1.09.46-1.42.95h0Z"/>
      <path class="st0" d="M105.73,85.1l-7.05,1.15c-.38,0-.74-.22-.9-.57l-9.54-15.9c-.24-.5-.03-1.1.47-1.33.5-.24,1.1-.03,1.33.47l9.27,15.33,6.42-1.15c.55,0,1,.45,1,1s-.45,1-1,1Z"/>
      <path class="st0" d="M105.73,85.1l-7.05,1.15c-.38,0-.74-.22-.9-.57l-9.54-15.9c-.24-.5-.03-1.1.47-1.33.5-.24,1.1-.03,1.33.47l9.27,15.33,6.42-1.15c.55,0,1,.45,1,1s-.45,1-1,1Z"/>
    </g>
  </g>
</svg>