<?xml version="1.0" encoding="UTF-8"?>
<svg id="_레이어_1" xmlns="http://www.w3.org/2000/svg" version="1.1" viewBox="0 0 34.66 16.74">
  <!-- Generator: Adobe Illustrator 29.8.3, SVG Export Plug-In . SVG Version: 2.1.1 Build 3)  -->
  <defs>
    <style>
      .st0 {
        fill: #d9d8e8;
      }
    </style>
  </defs>
  <path class="st0" d="M8.37,0h17.92c4.62,0,8.37,3.75,8.37,8.37s-3.76,8.37-8.37,8.37H8.37C3.76,16.74,0,12.99,0,8.37S3.76,0,8.37,0ZM26.29,15.75c4.07,0,7.38-3.31,7.38-7.38S30.36.99,26.29.99H8.37C4.3.99.99,4.3.99,8.37s3.31,7.38,7.38,7.38h17.92Z"/>
  <path class="st0" d="M8.37,0h17.92c4.62,0,8.37,3.75,8.37,8.37s-3.76,8.37-8.37,8.37H8.37C3.76,16.74,0,12.99,0,8.37S3.76,0,8.37,0ZM26.29,15.75c4.07,0,7.38-3.31,7.38-7.38S30.36.99,26.29.99H8.37C4.3.99.99,4.3.99,8.37s3.31,7.38,7.38,7.38h17.92Z"/>
  <circle class="st0" cx="8.82" cy="8.37" r="6.67"/>
  <circle class="st0" cx="8.82" cy="8.37" r="6.67"/>
</svg>